<svg width="44" height="48" viewBox="0 0 44 48" fill="none" xmlns="http://www.w3.org/2000/svg">
<path d="M18.9516 0.80145C20.838 -0.26715 23.162 -0.26715 25.0484 0.80145L40.9516 9.8104C42.838 10.879 44 12.8539 44 14.9911V33.0089C44 35.1461 42.838 37.121 40.9516 38.1896L25.0484 47.1985C23.162 48.2671 20.838 48.2671 18.9516 47.1985L3.04841 38.1896C1.16205 37.121 0 35.1461 0 33.0089V14.9911C0 12.8539 1.16205 10.879 3.04841 9.8104L18.9516 0.80145Z" fill="white"/>
<path d="M17.7322 37.958L17.5649 37.8629L18.7028 33.7435L9.96731 25.4414L9.93384 25.3464L13.1469 13.9706L13.2138 13.9072L25.2294 10.8652L25.3298 10.8969L34.1322 19.2307L34.1657 19.3258L30.9526 30.7015L30.9192 30.7649L17.7322 37.958ZM10.1681 25.3464L18.9036 33.6168L18.9371 33.7118L17.8326 37.6728L30.7518 30.5748L33.9314 19.2941L25.2294 11.0554L13.3477 14.0657L10.1681 25.3464Z" fill="url(#paint0_linear)"/>
<path d="M26.3677 26.5505L15.9922 24.0155L15.9587 23.8571L23.5897 16.6006L23.7571 16.6323L26.5016 26.4237L26.3677 26.5505ZM16.2265 23.8887L26.2338 26.3287L23.5897 16.8858L16.2265 23.8887Z" fill="url(#paint1_linear)"/>
<path d="M18.9039 33.7751L18.7365 33.7434L13.1806 14.0655L13.3145 13.9388L34.032 19.2306L34.0655 19.389L18.9039 33.7751ZM13.4149 14.1923L18.8704 33.5216L33.7978 19.4207L13.4149 14.1923Z" fill="url(#paint2_linear)"/>
<path d="M16.0026 23.8288L10.0052 25.2867L10.0551 25.4709L16.0525 24.013L16.0026 23.8288Z" fill="url(#paint3_linear)"/>
<path d="M25.1431 10.9462L23.5382 16.6408L23.7323 16.6898L25.3372 10.9952L25.1431 10.9462Z" fill="url(#paint4_linear)"/>
<path d="M26.4802 26.4722L26.3391 26.6074L30.7433 30.7279L30.8845 30.5927L26.4802 26.4722Z" fill="url(#paint5_linear)"/>
<path d="M17.7322 37.958L17.5649 37.8629L18.7028 33.7435L9.96731 25.4414L9.93384 25.3464L13.1469 13.9706L13.2138 13.9072L25.2294 10.8652L25.3298 10.8969L34.1322 19.2307L34.1657 19.3258L30.9526 30.7015L30.9192 30.7649L17.7322 37.958ZM10.1681 25.3464L18.9036 33.6168L18.9371 33.7118L17.8326 37.6728L30.7518 30.5748L33.9314 19.2941L25.2294 11.0554L13.3477 14.0657L10.1681 25.3464Z" stroke="url(#paint6_linear)" stroke-width="0.5"/>
<path d="M26.3677 26.5505L15.9922 24.0155L15.9587 23.8571L23.5897 16.6006L23.7571 16.6323L26.5016 26.4237L26.3677 26.5505ZM16.2265 23.8887L26.2338 26.3287L23.5897 16.8858L16.2265 23.8887Z" stroke="url(#paint7_linear)" stroke-width="0.5"/>
<path d="M18.9039 33.7751L18.7365 33.7434L13.1806 14.0655L13.3145 13.9388L34.032 19.2306L34.0655 19.389L18.9039 33.7751ZM13.4149 14.1923L18.8704 33.5216L33.7978 19.4207L13.4149 14.1923Z" stroke="url(#paint8_linear)" stroke-width="0.5"/>
<path d="M16.0026 23.8288L10.0052 25.2867L10.0551 25.4709L16.0525 24.013L16.0026 23.8288Z" stroke="url(#paint9_linear)" stroke-width="0.5"/>
<path d="M25.1431 10.9462L23.5382 16.6408L23.7323 16.6898L25.3372 10.9952L25.1431 10.9462Z" stroke="url(#paint10_linear)" stroke-width="0.5"/>
<path d="M26.4802 26.4722L26.3391 26.6074L30.7433 30.7279L30.8845 30.5927L26.4802 26.4722Z" stroke="url(#paint11_linear)" stroke-width="0.5"/>
<path d="M10.0679 26.1069C10.493 26.1069 10.8377 25.7806 10.8377 25.3781C10.8377 24.9756 10.493 24.6493 10.0679 24.6493C9.64275 24.6493 9.2981 24.9756 9.2981 25.3781C9.2981 25.7806 9.64275 26.1069 10.0679 26.1069Z" fill="url(#paint12_linear)"/>
<path d="M13.2808 14.7946C13.706 14.7946 14.0506 14.4683 14.0506 14.0658C14.0506 13.6632 13.706 13.337 13.2808 13.337C12.8557 13.337 12.511 13.6632 12.511 14.0658C12.511 14.4683 12.8557 14.7946 13.2808 14.7946Z" fill="url(#paint13_linear)"/>
<path d="M25.2631 11.7208C25.6883 11.7208 26.0329 11.3945 26.0329 10.992C26.0329 10.5895 25.6883 10.2632 25.2631 10.2632C24.838 10.2632 24.4933 10.5895 24.4933 10.992C24.4933 11.3945 24.838 11.7208 25.2631 11.7208Z" fill="url(#paint14_linear)"/>
<path d="M33.9317 20.0546C34.3568 20.0546 34.7015 19.7283 34.7015 19.3258C34.7015 18.9233 34.3568 18.597 33.9317 18.597C33.5065 18.597 33.1619 18.9233 33.1619 19.3258C33.1619 19.7283 33.5065 20.0546 33.9317 20.0546Z" fill="url(#paint15_linear)"/>
<path d="M30.819 31.3987C31.2442 31.3987 31.5888 31.0724 31.5888 30.6699C31.5888 30.2674 31.2442 29.9411 30.819 29.9411C30.3939 29.9411 30.0492 30.2674 30.0492 30.6699C30.0492 31.0724 30.3939 31.3987 30.819 31.3987Z" fill="url(#paint16_linear)"/>
<path d="M26.334 27.1207C26.7591 27.1207 27.1038 26.7944 27.1038 26.3919C27.1038 25.9894 26.7591 25.6631 26.334 25.6631C25.9088 25.6631 25.5642 25.9894 25.5642 26.3919C25.5642 26.7944 25.9088 27.1207 26.334 27.1207Z" fill="url(#paint17_linear)"/>
<path d="M18.8368 34.3773C19.2619 34.3773 19.6065 34.051 19.6065 33.6485C19.6065 33.246 19.2619 32.9197 18.8368 32.9197C18.4116 32.9197 18.067 33.246 18.067 33.6485C18.067 34.051 18.4116 34.3773 18.8368 34.3773Z" fill="url(#paint18_linear)"/>
<path d="M16.1259 24.6492C16.551 24.6492 16.8957 24.3229 16.8957 23.9204C16.8957 23.5179 16.551 23.1916 16.1259 23.1916C15.7007 23.1916 15.3561 23.5179 15.3561 23.9204C15.3561 24.3229 15.7007 24.6492 16.1259 24.6492Z" fill="url(#paint19_linear)"/>
<path d="M23.6564 17.4562C24.0816 17.4562 24.4262 17.1299 24.4262 16.7274C24.4262 16.3249 24.0816 15.9986 23.6564 15.9986C23.2313 15.9986 22.8866 16.3249 22.8866 16.7274C22.8866 17.1299 23.2313 17.4562 23.6564 17.4562Z" fill="url(#paint20_linear)"/>
<path d="M10.0679 26.1069C10.493 26.1069 10.8377 25.7806 10.8377 25.3781C10.8377 24.9756 10.493 24.6493 10.0679 24.6493C9.64275 24.6493 9.2981 24.9756 9.2981 25.3781C9.2981 25.7806 9.64275 26.1069 10.0679 26.1069Z" stroke="url(#paint21_linear)"/>
<path d="M13.2808 14.7946C13.706 14.7946 14.0506 14.4683 14.0506 14.0658C14.0506 13.6632 13.706 13.337 13.2808 13.337C12.8557 13.337 12.511 13.6632 12.511 14.0658C12.511 14.4683 12.8557 14.7946 13.2808 14.7946Z" stroke="url(#paint22_linear)"/>
<path d="M25.2631 11.7208C25.6883 11.7208 26.0329 11.3945 26.0329 10.992C26.0329 10.5895 25.6883 10.2632 25.2631 10.2632C24.838 10.2632 24.4933 10.5895 24.4933 10.992C24.4933 11.3945 24.838 11.7208 25.2631 11.7208Z" stroke="url(#paint23_linear)"/>
<path d="M33.9317 20.0546C34.3568 20.0546 34.7015 19.7283 34.7015 19.3258C34.7015 18.9233 34.3568 18.597 33.9317 18.597C33.5065 18.597 33.1619 18.9233 33.1619 19.3258C33.1619 19.7283 33.5065 20.0546 33.9317 20.0546Z" stroke="url(#paint24_linear)"/>
<path d="M30.819 31.3987C31.2442 31.3987 31.5888 31.0724 31.5888 30.6699C31.5888 30.2674 31.2442 29.9411 30.819 29.9411C30.3939 29.9411 30.0492 30.2674 30.0492 30.6699C30.0492 31.0724 30.3939 31.3987 30.819 31.3987Z" stroke="url(#paint25_linear)"/>
<path d="M26.334 27.1207C26.7591 27.1207 27.1038 26.7944 27.1038 26.3919C27.1038 25.9894 26.7591 25.6631 26.334 25.6631C25.9088 25.6631 25.5642 25.9894 25.5642 26.3919C25.5642 26.7944 25.9088 27.1207 26.334 27.1207Z" stroke="url(#paint26_linear)"/>
<path d="M18.8368 34.3773C19.2619 34.3773 19.6065 34.051 19.6065 33.6485C19.6065 33.246 19.2619 32.9197 18.8368 32.9197C18.4116 32.9197 18.067 33.246 18.067 33.6485C18.067 34.051 18.4116 34.3773 18.8368 34.3773Z" stroke="url(#paint27_linear)"/>
<path d="M16.1259 24.6492C16.551 24.6492 16.8957 24.3229 16.8957 23.9204C16.8957 23.5179 16.551 23.1916 16.1259 23.1916C15.7007 23.1916 15.3561 23.5179 15.3561 23.9204C15.3561 24.3229 15.7007 24.6492 16.1259 24.6492Z" stroke="url(#paint28_linear)"/>
<path d="M23.6564 17.4562C24.0816 17.4562 24.4262 17.1299 24.4262 16.7274C24.4262 16.3249 24.0816 15.9986 23.6564 15.9986C23.2313 15.9986 22.8866 16.3249 22.8866 16.7274C22.8866 17.1299 23.2313 17.4562 23.6564 17.4562Z" stroke="url(#paint29_linear)"/>
<defs>
<linearGradient id="paint0_linear" x1="22.0498" y1="37.958" x2="22.0498" y2="7.72054" gradientUnits="userSpaceOnUse">
<stop stop-color="#5558FF"/>
<stop offset="0.991398" stop-color="#00C0FF"/>
</linearGradient>
<linearGradient id="paint1_linear" x1="22.0498" y1="37.958" x2="22.0498" y2="7.72054" gradientUnits="userSpaceOnUse">
<stop stop-color="#5558FF"/>
<stop offset="0.991398" stop-color="#00C0FF"/>
</linearGradient>
<linearGradient id="paint2_linear" x1="22.0498" y1="37.958" x2="22.0498" y2="7.72054" gradientUnits="userSpaceOnUse">
<stop stop-color="#5558FF"/>
<stop offset="0.991398" stop-color="#00C0FF"/>
</linearGradient>
<linearGradient id="paint3_linear" x1="22.0498" y1="37.958" x2="22.0498" y2="7.72054" gradientUnits="userSpaceOnUse">
<stop stop-color="#5558FF"/>
<stop offset="0.991398" stop-color="#00C0FF"/>
</linearGradient>
<linearGradient id="paint4_linear" x1="22.0498" y1="37.958" x2="22.0498" y2="7.72054" gradientUnits="userSpaceOnUse">
<stop stop-color="#5558FF"/>
<stop offset="0.991398" stop-color="#00C0FF"/>
</linearGradient>
<linearGradient id="paint5_linear" x1="22.0498" y1="37.958" x2="22.0498" y2="7.72054" gradientUnits="userSpaceOnUse">
<stop stop-color="#5558FF"/>
<stop offset="0.991398" stop-color="#00C0FF"/>
</linearGradient>
<linearGradient id="paint6_linear" x1="22.0498" y1="37.958" x2="22.0498" y2="7.72054" gradientUnits="userSpaceOnUse">
<stop stop-color="#5558FF"/>
<stop offset="0.991398" stop-color="#00C0FF"/>
</linearGradient>
<linearGradient id="paint7_linear" x1="22.0498" y1="37.958" x2="22.0498" y2="7.72054" gradientUnits="userSpaceOnUse">
<stop stop-color="#5558FF"/>
<stop offset="0.991398" stop-color="#00C0FF"/>
</linearGradient>
<linearGradient id="paint8_linear" x1="22.0498" y1="37.958" x2="22.0498" y2="7.72054" gradientUnits="userSpaceOnUse">
<stop stop-color="#5558FF"/>
<stop offset="0.991398" stop-color="#00C0FF"/>
</linearGradient>
<linearGradient id="paint9_linear" x1="22.0498" y1="37.958" x2="22.0498" y2="7.72054" gradientUnits="userSpaceOnUse">
<stop stop-color="#5558FF"/>
<stop offset="0.991398" stop-color="#00C0FF"/>
</linearGradient>
<linearGradient id="paint10_linear" x1="22.0498" y1="37.958" x2="22.0498" y2="7.72054" gradientUnits="userSpaceOnUse">
<stop stop-color="#5558FF"/>
<stop offset="0.991398" stop-color="#00C0FF"/>
</linearGradient>
<linearGradient id="paint11_linear" x1="22.0498" y1="37.958" x2="22.0498" y2="7.72054" gradientUnits="userSpaceOnUse">
<stop stop-color="#5558FF"/>
<stop offset="0.991398" stop-color="#00C0FF"/>
</linearGradient>
<linearGradient id="paint12_linear" x1="21.9998" y1="34.3773" x2="21.9998" y2="7.46422" gradientUnits="userSpaceOnUse">
<stop stop-color="#5558FF"/>
<stop offset="0.991398" stop-color="#00C0FF"/>
</linearGradient>
<linearGradient id="paint13_linear" x1="21.9998" y1="34.3773" x2="21.9998" y2="7.46422" gradientUnits="userSpaceOnUse">
<stop stop-color="#5558FF"/>
<stop offset="0.991398" stop-color="#00C0FF"/>
</linearGradient>
<linearGradient id="paint14_linear" x1="21.9998" y1="34.3773" x2="21.9998" y2="7.46422" gradientUnits="userSpaceOnUse">
<stop stop-color="#5558FF"/>
<stop offset="0.991398" stop-color="#00C0FF"/>
</linearGradient>
<linearGradient id="paint15_linear" x1="21.9998" y1="34.3773" x2="21.9998" y2="7.46422" gradientUnits="userSpaceOnUse">
<stop stop-color="#5558FF"/>
<stop offset="0.991398" stop-color="#00C0FF"/>
</linearGradient>
<linearGradient id="paint16_linear" x1="21.9998" y1="34.3773" x2="21.9998" y2="7.46422" gradientUnits="userSpaceOnUse">
<stop stop-color="#5558FF"/>
<stop offset="0.991398" stop-color="#00C0FF"/>
</linearGradient>
<linearGradient id="paint17_linear" x1="21.9998" y1="34.3773" x2="21.9998" y2="7.46422" gradientUnits="userSpaceOnUse">
<stop stop-color="#5558FF"/>
<stop offset="0.991398" stop-color="#00C0FF"/>
</linearGradient>
<linearGradient id="paint18_linear" x1="21.9998" y1="34.3773" x2="21.9998" y2="7.46422" gradientUnits="userSpaceOnUse">
<stop stop-color="#5558FF"/>
<stop offset="0.991398" stop-color="#00C0FF"/>
</linearGradient>
<linearGradient id="paint19_linear" x1="21.9998" y1="34.3773" x2="21.9998" y2="7.46422" gradientUnits="userSpaceOnUse">
<stop stop-color="#5558FF"/>
<stop offset="0.991398" stop-color="#00C0FF"/>
</linearGradient>
<linearGradient id="paint20_linear" x1="21.9998" y1="34.3773" x2="21.9998" y2="7.46422" gradientUnits="userSpaceOnUse">
<stop stop-color="#5558FF"/>
<stop offset="0.991398" stop-color="#00C0FF"/>
</linearGradient>
<linearGradient id="paint21_linear" x1="21.9998" y1="34.3773" x2="21.9998" y2="7.46422" gradientUnits="userSpaceOnUse">
<stop stop-color="#5558FF"/>
<stop offset="0.991398" stop-color="#00C0FF"/>
</linearGradient>
<linearGradient id="paint22_linear" x1="21.9998" y1="34.3773" x2="21.9998" y2="7.46422" gradientUnits="userSpaceOnUse">
<stop stop-color="#5558FF"/>
<stop offset="0.991398" stop-color="#00C0FF"/>
</linearGradient>
<linearGradient id="paint23_linear" x1="21.9998" y1="34.3773" x2="21.9998" y2="7.46422" gradientUnits="userSpaceOnUse">
<stop stop-color="#5558FF"/>
<stop offset="0.991398" stop-color="#00C0FF"/>
</linearGradient>
<linearGradient id="paint24_linear" x1="21.9998" y1="34.3773" x2="21.9998" y2="7.46422" gradientUnits="userSpaceOnUse">
<stop stop-color="#5558FF"/>
<stop offset="0.991398" stop-color="#00C0FF"/>
</linearGradient>
<linearGradient id="paint25_linear" x1="21.9998" y1="34.3773" x2="21.9998" y2="7.46422" gradientUnits="userSpaceOnUse">
<stop stop-color="#5558FF"/>
<stop offset="0.991398" stop-color="#00C0FF"/>
</linearGradient>
<linearGradient id="paint26_linear" x1="21.9998" y1="34.3773" x2="21.9998" y2="7.46422" gradientUnits="userSpaceOnUse">
<stop stop-color="#5558FF"/>
<stop offset="0.991398" stop-color="#00C0FF"/>
</linearGradient>
<linearGradient id="paint27_linear" x1="21.9998" y1="34.3773" x2="21.9998" y2="7.46422" gradientUnits="userSpaceOnUse">
<stop stop-color="#5558FF"/>
<stop offset="0.991398" stop-color="#00C0FF"/>
</linearGradient>
<linearGradient id="paint28_linear" x1="21.9998" y1="34.3773" x2="21.9998" y2="7.46422" gradientUnits="userSpaceOnUse">
<stop stop-color="#5558FF"/>
<stop offset="0.991398" stop-color="#00C0FF"/>
</linearGradient>
<linearGradient id="paint29_linear" x1="21.9998" y1="34.3773" x2="21.9998" y2="7.46422" gradientUnits="userSpaceOnUse">
<stop stop-color="#5558FF"/>
<stop offset="0.991398" stop-color="#00C0FF"/>
</linearGradient>
</defs>
</svg>
